<?xml version="1.0" encoding="UTF-8" standalone="no"?>
<!-- Created with Inkscape (http://www.inkscape.org/) -->

<svg
   version="1.1"
   id="svg201"
   width="800"
   height="800"
   viewBox="0 0 800 800"
   sodipodi:docname="csc1810"
   inkscape:version="1.2.2 (b0a8486541, 2022-12-01)"
   xmlns:inkscape="http://www.inkscape.org/namespaces/inkscape"
   xmlns:sodipodi="http://sodipodi.sourceforge.net/DTD/sodipodi-0.dtd"
   xmlns="http://www.w3.org/2000/svg"
   xmlns:svg="http://www.w3.org/2000/svg">
  <defs
     id="defs205" />
  <sodipodi:namedview
     id="namedview203"
     pagecolor="#505050"
     bordercolor="#ffffff"
     borderopacity="1"
     inkscape:showpageshadow="0"
     inkscape:pageopacity="0"
     inkscape:pagecheckerboard="1"
     inkscape:deskcolor="#505050"
     showgrid="false"
     inkscape:zoom="0.38720703"
     inkscape:cx="493.27617"
     inkscape:cy="534.59773"
     inkscape:window-width="1434"
     inkscape:window-height="738"
     inkscape:window-x="207"
     inkscape:window-y="143"
     inkscape:window-maximized="0"
     inkscape:current-layer="g207" />
  <g
     inkscape:groupmode="layer"
     inkscape:label="Image"
     id="g207">
    <path
       style="fill:#000000"
       d="m 269.69305,733.41058 -7,-0.27208 -19,-1.07859 -19,-1.07859 -16.5,-1.97471 -16.5,-1.9747 -5.98637,-1.51863 -5.98636,-1.51863 -2.24282,-1.46956 -2.24283,-1.46956 -1.40338,-2.74058 -1.40338,-2.74058 -1.6274,-11.5 -1.62739,-11.5 -4.01879,-34 -4.01879,-34 -3.43963,-28 -3.43963,-28 -6.52217,-55 -6.52216,-55 -1.0226,-8 -1.02259,-8 -8.94696,-78.5 -8.94696,-78.5 -0.57434,-4.75 -0.57434,-4.75 h 178.03445 178.03444 l -0.002,0.75 -0.002,0.75 -2.01679,19 -2.01679,19 -4.54554,42.5 -4.54554,42.5 -0.88743,9 -0.88743,9 -4.00785,39 -4.00786,39 -6.09021,59.5 -6.09022,59.5 -4.44786,43 -4.44787,43 -1.00613,7.3529 -1.00613,7.3529 -1.7239,2.91834 -1.72391,2.91834 -4.02185,1.8877 -4.02184,1.8877 -9.5,1.56926 -9.5,1.56927 -16,1.51546 -16,1.51547 -22.5,0.993 -22.5,0.993 -23,-0.18253 -23,-0.18253 -7,-0.27207 z m 51.5,-145.95702 8.5,-1.49157 6.85828,-2.0184 6.85829,-2.01841 7.56016,-3.44527 7.56016,-3.44528 8.27866,-5.50843 8.27867,-5.50844 8.06568,-7.58761 8.06567,-7.58761 6.02221,-7.99207 6.0222,-7.99207 4.92342,-10.14201 4.92342,-10.14202 2.50025,-8.71921 2.50025,-8.71921 1.17277,-8.78079 1.17276,-8.78079 -0.58414,-11.5 -0.58414,-11.5 -2.08085,-8.5 -2.08085,-8.5 -2.04591,-5.5 -2.04591,-5.5 -4.10533,-7.89104 -4.10534,-7.89103 -4.48164,-6.10897 -4.48164,-6.10896 -5.08355,-5.87357 -5.08355,-5.87358 -8,-6.43602 -8,-6.43603 -8,-4.83195 -8,-4.83195 -7.4382,-3.14398 -7.4382,-3.14398 -7.30615,-1.91366 -7.30616,-1.91366 -10.24941,-1.12782 -10.24941,-1.12782 -7.00624,0.63433 -7.00623,0.63434 -8.35389,1.49438 -8.35389,1.49439 -9.59724,3.43019 -9.59723,3.43018 -8.04888,4.62834 -8.04887,4.62835 -7,5.32998 -7,5.32998 -6.62278,6.80978 -6.62277,6.80978 -5.39053,7.18223 -5.39053,7.18222 -4.35976,8.75447 -4.35977,8.75446 -2.37822,6.99225 -2.37821,6.99224 -1.64175,8.57106 -1.64175,8.57107 0.041,12 0.041,12 1.14014,7 1.14013,7 2.55926,8.46388 2.55926,8.46389 4.30994,8.53611 4.30994,8.53612 5.24195,7.5 5.24195,7.5 8.3146,8.18137 8.31459,8.18137 9.06712,5.97334 9.06711,5.97335 9.21902,4.04212 9.21901,4.04212 10.13518,2.61 10.13519,2.61001 8.36481,0.83721 8.36482,0.83721 7.5,-0.45867 7.5,-0.45867 8.5,-1.49157 z m -63.24534,-59.5368 -6.74534,-0.67623 -6.28487,-2.09147 -6.28487,-2.09147 -3.96979,-2.6658 -3.96979,-2.66581 -4.25722,-3.45218 -4.25722,-3.45219 -4.36094,-6.62362 -4.36094,-6.62362 -2.26228,-6 -2.26228,-6 -0.46996,-10 -0.46995,-10 1.62009,-6.89697 1.62009,-6.89698 3.19051,-6.10302 3.19051,-6.10303 7.06123,-7 7.06122,-7 6.62248,-3.23979 6.62248,-3.23979 6.85609,-1.61354 6.85609,-1.61355 7.5,0.5237 7.5,0.5237 6.70596,2.10621 6.70596,2.10622 7.52706,5.0344 7.52706,5.03441 3.65825,4.46441 3.65825,4.46441 -0.49156,0.49156 -0.49156,0.49157 -7.86007,5.88658 -7.86006,5.88658 -4.809,-4.3237 -4.809,-4.32371 -4.39186,-2.12606 -4.39186,-2.12606 -5.33879,-0.85872 -5.33878,-0.85871 -5.46828,0.99597 -5.46827,0.99597 -3.88114,1.98001 -3.88114,1.98001 -4.38012,4.03745 -4.38011,4.03746 -2.77047,5.6415 -2.77047,5.64151 v 9 9 l 2.77047,5.64151 2.77047,5.6415 4.55438,4.19809 4.55439,4.19809 5.42217,2.48235 5.42217,2.48235 5.52576,0.57031 5.52575,0.57031 6.62317,-1.79281 6.62318,-1.79281 6.407,-4.84945 6.40701,-4.84944 h 0.63907 0.63908 l 7.80797,5.12608 7.80796,5.12607 v 1.15523 1.15523 l -5.75,5.60699 -5.75,5.60699 -4,2.45535 -4,2.45535 -5.82486,2.17033 -5.82486,2.17033 -7.17514,0.74533 -7.17514,0.74533 z m 71.68805,-11.046 0.5041,-2.29639 1.02659,-5.93366 1.0266,-5.93366 v -2.81634 -2.81634 h -6.13084 -6.13084 l 0.61983,-3.75 0.61984,-3.75 0.011,-2.25 0.011,-2.25 h 6.48095 6.48095 l 0.48689,-2.25 0.4869,-2.25 0.92242,-6.5 0.92242,-6.5 -0.14026,-0.15939 -0.14027,-0.15939 -6,-0.35701 -6,-0.35701 0.16669,-1.4836 0.1667,-1.4836 0.64458,-4.75 0.64458,-4.75 h 6.35927 6.35927 l 0.54534,-2.75 0.54534,-2.75 1.14916,-8.25 1.14915,-8.25 h 6.85996 6.85996 l -0.48098,2.75 -0.48099,2.75 -0.98646,6.5 -0.98646,6.5 -0.008,1.75 -0.008,1.75 h 6.35798 6.35799 l 1.21115,-9.25 1.21116,-9.25 0.49825,-1.75 0.49825,-1.75 h 6.97792 6.97793 l -0.52902,3.25 -0.52902,3.25 -1.0163,5.93366 -1.01629,5.93366 v 1.81634 1.81634 h 6.57196 6.57195 l -0.68593,5.75 -0.68593,5.75 -0.63602,0.6972 -0.63603,0.69719 -6.4746,0.30281 -6.47461,0.3028 -1.31094,7.88112 -1.31094,7.88112 0.49678,0.49679 0.49679,0.49678 5.53944,0.1221 5.53945,0.12209 0.11277,0.76417 0.11276,0.76418 -0.6854,5.48582 -0.68541,5.48583 h -6.42805 -6.42804 l -0.0179,0.75 -0.0179,0.75 -1.40346,9.21831 -1.40346,9.2183 -0.63762,1.0317 -0.63762,1.03169 h -5.77432 -5.77432 l -0.52425,-0.52425 -0.52425,-0.52425 1.33759,-8.22575 1.33759,-8.22575 0.02,-2.25 0.02,-2.25 h -6.43873 -6.43872 l -0.66826,4.75 -0.66825,4.75 -1.14302,6 -1.14302,6 -6.7807,0.29639 -6.78069,0.29639 0.5041,-2.29639 z m 33.2314,-39.34695 1.20298,-6.94944 0.0615,-1.79569 0.0614,-1.79569 -6.73953,0.29569 -6.73953,0.29569 -0.73733,5.5 -0.73732,5.5 -0.487,2.69427 -0.487,2.69427 4.21386,0.30573 4.21385,0.30573 2.48556,-0.0506 2.48556,-0.0506 1.20299,-6.94944 z m 155.58859,8.50117 -3.2373,-1.00121 -0.62437,-2.48769 -0.62436,-2.48768 1.14248,-1.37662 1.14249,-1.37661 6.21918,-2.26405 6.21918,-2.26405 5.58993,-3.32152 5.58993,-3.32151 4.73079,-5.05761 4.7308,-5.0576 1.95401,-4.41735 1.954,-4.41735 1.0084,-5.45495 1.00841,-5.45496 -1.4428,-6.84492 -1.4428,-6.84493 -5.13357,-11.33801 -5.13358,-11.33801 -1.67965,-6.16199 -1.67966,-6.16199 0.0723,-10.5 0.0723,-10.5 2.83302,-8.4012 2.83302,-8.4012 4.64663,-7.0988 4.64663,-7.0988 5.39367,-5.88395 5.39367,-5.88395 15.02724,-12.23871 15.02723,-12.2387 5.05481,-5.37735 5.05482,-5.37734 4.38934,-6.48103 4.38933,-6.48103 2.87203,-6.83562 2.87202,-6.83562 1.41646,-6.68335 1.41646,-6.68335 0.0174,-8.09004 0.0174,-8.09003 -1.98624,-7.90997 -1.98624,-7.90996 -4.02655,-8 -4.02655,-8 -6.95262,-9 -6.95262,-9 -6.46744,-9.5 -6.46745,-9.5 -2.91011,-6.5 -2.91011,-6.5 -1.40601,-5.5 -1.406,-5.5 0.0758,-12 0.0758,-12 2.63815,-8 2.63815,-8 3.17139,-5 3.1714,-5 4.4929,-5.25917 4.4929,-5.25916 6.62069,-4.33537 6.6207,-4.33537 4,-1.52088 4,-1.52088 3.83384,-0.69563 3.83384,-0.69562 2.9171,0.6407 2.9171,0.6407 0.65022,2.59068 0.65022,2.59068 -3.40116,2.90916 -3.40116,2.90916 -5.65139,5.46858 -5.6514,5.46857 -3.57595,6.80504 -3.57594,6.80504 -1.50788,6.39688 -1.50788,6.39689 -0.0148,8.0399 -0.0148,8.0399 1.54713,5.9601 1.54713,5.9601 2.46378,5.39467 2.46378,5.39468 4.16481,6.10532 4.1648,6.10533 10.2571,12.67697 10.25711,12.67698 4.5366,7.74987 4.5366,7.74988 2.92892,8.09448 2.92893,8.09449 1.10704,9.10485 1.10705,9.10486 -0.97489,9.37381 -0.97488,9.37381 -1.38395,4.5 -1.38394,4.5 -2.7448,6.5 -2.7448,6.5 -5.30986,8 -5.30985,8 -7.77443,8.3532 -7.77442,8.3532 -16.59579,13.2623 -16.5958,13.26229 -3.38956,3.86051 -3.38957,3.8605 -3.84688,5.95187 -3.84688,5.95187 -1.98524,6.42747 -1.98524,6.42746 v 7.08078 7.08077 l 1.63624,6.52432 1.63623,6.52431 2.96625,6.53958 2.96624,6.53957 1.44189,4 1.44188,4 0.9929,7.13527 0.99289,7.13528 -1.48657,7.12965 -1.48658,7.12965 -3.15127,5.9124 -3.15128,5.9124 -5.88899,5.82267 -5.88898,5.82268 -6.24515,3.78232 -6.24514,3.78231 -6.51528,2.01544 -6.51528,2.01544 -7.5,0.42816 -7.5,0.42815 -3.2373,-1.00121 z m 123.04564,-63.07743 -2.19167,-1.12675 -0.55475,-1.44566 -0.55475,-1.44565 0.93743,-1.7516 0.93742,-1.7516 4.30899,-1.2895 4.30899,-1.2895 5.87523,-2.96407 5.87523,-2.96407 4.7315,-4.7315 4.7315,-4.7315 2.24113,-5.94089 2.24112,-5.94089 -0.42619,-7.64142 -0.4262,-7.64143 -6.23664,-12.99487 -6.23664,-12.99488 -1.06859,-7.19972 -1.0686,-7.19972 1.0867,-6.55803 1.08671,-6.55803 2.69978,-5.51816 2.69978,-5.51816 6.59709,-6.67568 6.59709,-6.67567 4.88043,-2.83357 4.88043,-2.83358 6.41506,-2.32854 6.41506,-2.32854 h 3.34372 3.34373 l 2.26154,1.83128 2.26154,1.83128 -0.61477,2.44943 -0.61477,2.44943 -6.51002,4.77999 -6.51001,4.77999 -3.58618,4.1893 -3.58617,4.1893 -3.07268,6.24107 -3.07267,6.24107 -0.48896,6.83389 -0.48897,6.83389 1.66632,5.73195 1.66633,5.73195 4.47476,9.5767 4.47477,9.57671 1.0886,4.32322 1.0886,4.32322 -0.37317,7.79316 -0.37317,7.79317 -3.07121,6.5 -3.07122,6.5 -4.41346,4.53045 -4.41346,4.53046 -4.73964,3.26046 -4.73965,3.26046 -6.76035,2.57349 -6.76036,2.57349 -8.5,0.38556 -8.5,0.38555 z M 91.51131,258.61729 l -3.18174,-1.38897 -0.91207,-3.32698 -0.91206,-3.32697 1.77802,-16.81224 1.77802,-16.81223 0.68622,-3.18777 0.68623,-3.18776 1.44598,-2.82878 1.44598,-2.82878 3.42472,-1.43094 3.42473,-1.43094 199.42836,0.25972 199.42837,0.25972 2.5633,2.40817 2.56331,2.40816 0.48196,1.59184 0.48195,1.59183 2.03372,17 2.03371,17 0.44209,3.27124 0.44209,3.27124 -0.95843,2.74937 -0.95844,2.74936 -2.23214,1.4794 -2.23214,1.47939 -205,0.21594 -205,0.21595 z m 43.13602,-74.79292 0.49239,-2.25 3.585,-21.41246 3.58499,-21.41246 1.45202,-2.80789 1.45202,-2.8079 1.92391,-1.02965 1.92391,-1.02964 H 298.4048 447.74804 l 2.21477,1.55128 2.21477,1.55129 1.05715,1.97531 1.05716,1.97531 3.95058,22.9864 3.95058,22.9864 v 0.98701 0.987 H 298.174 134.15495 Z"
       id="path369" />
  </g>
</svg>
