<?xml version="1.0" encoding="UTF-8" standalone="no"?>
<svg
   version="1.1"
   viewBox="-5 -10 80 80"
   id="svg8"
   sodipodi:docname="noun_biotechnology_8334864.svg"
   width="80"
   height="80"
   inkscape:version="1.2.2 (b0a8486541, 2022-12-01)"
   xmlns:inkscape="http://www.inkscape.org/namespaces/inkscape"
   xmlns:sodipodi="http://sodipodi.sourceforge.net/DTD/sodipodi-0.dtd"
   xmlns="http://www.w3.org/2000/svg"
   xmlns:svg="http://www.w3.org/2000/svg">
  <defs
     id="defs12" />
  <sodipodi:namedview
     id="namedview10"
     pagecolor="#505050"
     bordercolor="#ffffff"
     borderopacity="1"
     inkscape:showpageshadow="0"
     inkscape:pageopacity="0"
     inkscape:pagecheckerboard="1"
     inkscape:deskcolor="#505050"
     showgrid="false"
     inkscape:zoom="6.1037037"
     inkscape:cx="55.048544"
     inkscape:cy="28.179612"
     inkscape:window-width="1920"
     inkscape:window-height="994"
     inkscape:window-x="0"
     inkscape:window-y="0"
     inkscape:window-maximized="1"
     inkscape:current-layer="svg8" />
  <path
     d="m 42.20064,66.20388 h -16.801 c -0.19922,0.80078 -0.30078,1.6992 -0.30078,2.6016 0,0.60156 -0.5,1.1016 -1.1016,1.1016 -0.60156,0 -1.1016,-0.5 -1.1016,-1.1016 0,-2.6992 0.89844,-5.3008 2.3984,-7.5 1.1992,-1.6016 2.6992,-3 4.6016,-4.1992 0.39844,0.19922 0.80078,0.39844 1.1992,0.60156 l 1.1992,0.60156 c -0.60156,0.30078 -1.1016,0.60156 -1.6016,0.89844 h 3.6016 l 1.6992,0.80078 c 0.89844,0.39844 1.6992,0.89844 2.5,1.3984 l -10.391,-0.0039 c -0.39844,0.39844 -0.69922,0.80078 -1,1.1992 -0.30078,0.39844 -0.60156,0.89844 -0.80078,1.3008 h 14.801 c 0.5,0.80078 0.89844,1.6016 1.0977,2.3008 z m -4.3008,-36.098 -4.8984,-2.2031 c -0.80078,-0.39844 -1.5,-0.80078 -2.1992,-1.1992 h 3.6992 l 2.1016,-1.1016 c 0.69922,-0.30078 1.3008,-0.69922 1.8984,-1.1992 h -10.398 c -0.39844,-0.39844 -0.69922,-0.80078 -1,-1.1992 -0.30078,-0.39844 -0.60156,-0.89844 -0.80078,-1.3008 h 14.801 c 0.5,-0.69922 0.89844,-1.3984 1.1016,-2.1992 h -16.805 c -0.19922,-0.80078 -0.30078,-1.6992 -0.30078,-2.6016 0,-0.60156 -0.5,-1.1016 -1.1016,-1.1016 -0.60156,0 -1.1016,0.5 -1.1016,1.1016 0,2.6992 0.89844,5.3008 2.3984,7.5 1.6016,2.1992 3.8984,4 6.8008,5.3008 l 4.8984,2.3008 c 2.5,1.1992 4.5,2.8008 5.8984,4.6016 1.3008,1.8008 2,3.8984 2,6.1992 0,2.3008 -0.69922,4.3984 -2,6.1992 -1.1992,1.6992 -3,3.1992 -5.1992,4.3008 l 1.1992,0.60156 c 0.39844,0.19922 0.80078,0.39844 1.1992,0.60156 1.8984,-1.1992 3.3984,-2.6016 4.6016,-4.1992 1.6016,-2.1992 2.5,-4.8008 2.5,-7.5 0,-2.6992 -0.89844,-5.3008 -2.5,-7.5 -1.5898,-2.2031 -3.8906,-4.0039 -6.793,-5.4023 z m 0,25.898 -4.8984,-2.1992 c -0.80078,-0.39844 -1.5,-0.80078 -2.1992,-1.1992 h 3.6992 l 2.1016,-1.1016 c 0.69922,-0.30078 1.3008,-0.69922 1.8984,-1.1992 h -10.398 c -0.39844,-0.39844 -0.69922,-0.80078 -1,-1.1992 -0.5,-0.69922 -0.89844,-1.5 -1.3008,-2.3008 h 15.801 c 0.39844,-0.69922 0.69922,-1.3984 0.80078,-2.1992 h -17.203 c -0.10156,-0.60156 -0.10156,-1.1016 -0.10156,-1.6992 0,-0.60156 0,-1.1992 0.10156,-1.6992 h 17.199 c -0.19922,-0.80078 -0.39844,-1.5 -0.80078,-2.1992 l -15.699,-0.0039 c 0.30078,-0.80078 0.69922,-1.6016 1.3008,-2.3008 0.30078,-0.39844 0.60156,-0.80078 1,-1.1992 h 10.398 c -0.80078,-0.60156 -1.6016,-1 -2.5,-1.3984 l -1.6992,-0.80078 h -3.6016 c 0.5,-0.30078 1,-0.60156 1.6016,-0.89844 l -1.1992,-0.60156 c -0.39844,-0.19922 -0.80078,-0.39844 -1.1992,-0.60156 -1.8984,1.1992 -3.3984,2.6016 -4.6016,4.1992 -1.6016,2.1992 -2.3984,4.8008 -2.3984,7.5 0,2.6992 0.89844,5.3008 2.3984,7.5 1.6016,2.1992 3.8984,4 6.8008,5.3008 l 4.8984,2.3008 c 2.5,1.1992 4.5,2.8008 5.8984,4.6016 1.3008,1.8008 2,3.8984 2,6.1992 0,0.60156 0.5,1.1016 1.1016,1.1016 0.60156,0 1.1016,-0.5 1.1016,-1.1016 0,-2.6992 -0.89844,-5.3008 -2.5,-7.5 -1.5977,-2.1016 -3.8984,-3.9023 -6.8008,-5.3008 z m -5.7969,-52 4.8984,2.3008 c 2.5,1.1992 4.5,2.8008 5.8984,4.6016 1.3008,1.8008 2,3.8984 2,6.1992 0,2.3008 -0.69922,4.3984 -2,6.1992 -1.1992,1.6992 -3,3.1992 -5.1992,4.3008 l 1.1992,0.60156 c 0.39844,0.19922 0.80078,0.39844 1.1992,0.60156 1.8984,-1.1992 3.3984,-2.6016 4.6016,-4.1992 1.6016,-2.1992 2.3984,-4.8008 2.3984,-7.5 0,-2.6992 -0.89844,-5.3008 -2.3984,-7.5 -1.6016,-2.1992 -3.8984,-4 -6.6992,-5.3008 l -5,-2.4062 c -2.5,-1.1992 -4.5,-2.8008 -5.8984,-4.6016 -1.3008,-1.8008 -2,-3.8984 -2,-6.1992 0,-0.60156 -0.5,-1.1016 -1.1016,-1.1016 -0.6016,0 -1.1016,0.5 -1.1016,1.1016 0,2.6992 0.89844,5.3008 2.3984,7.5 1.6016,2.2031 3.9023,4.0039 6.8047,5.4023 z m 42.797,41.801 c 0,2.1016 -1.6992,3.8984 -3.8984,3.8984 -1.8008,0 -3.1992,-1.1992 -3.6992,-2.8008 h -7.1016 l 3.8984,6.6992 c 0.30078,-0.10156 0.60156,-0.10156 0.89844,-0.10156 2.1016,0 3.8984,1.6992 3.8984,3.8984 0,2.1016 -1.6992,3.8984 -3.8984,3.8984 -2.1016,0 -3.8984,-1.6992 -3.8984,-3.8984 0,-1 0.39844,-2 1.1016,-2.6992 l -4.5,-7.8008 -8.6992,0.0039 c -0.60156,0 -1.1016,-0.5 -1.1016,-1.1016 0,-0.6016 0.5,-1.1016 1.1016,-1.1016 h 18.301 c 0.5,-1.6016 2,-2.8008 3.6992,-2.8008 2.1992,0.0039 3.8984,1.8047 3.8984,3.9062 z m -11.598,11.598 c 0,0.89844 0.69922,1.6992 1.6992,1.6992 0.89844,0 1.6992,-0.69922 1.6992,-1.6992 0,-0.89844 -0.69922,-1.6992 -1.6992,-1.6992 -0.89844,0 -1.6992,0.80078 -1.6992,1.6992 z m 9.3984,-11.598 c 0,-0.89844 -0.69922,-1.6992 -1.6992,-1.6992 -0.99998,0 -1.6992,0.69922 -1.6992,1.6992 0,0.89844 0.69922,1.6992 1.6992,1.6992 0.99998,0 1.6992,-0.80078 1.6992,-1.6992 z m -50.598,0 c 0,0.60156 -0.5,1.1016 -1.1016,1.1016 h -8.6992 l -4.5,7.8008 c 0.69922,0.69922 1.1016,1.6016 1.1016,2.6992 0,2.1016 -1.6992,3.8984 -3.8984,3.8984 -2.1016,0 -3.8984,-1.6992 -3.8984,-3.8984 0,-2.1016 1.6992,-3.8984 3.8984,-3.8984 0.30078,0 0.60156,0 0.89844,0.10156 l 3.8984,-6.6992 h -7.1016 c -0.5,1.6016 -2,2.8008 -3.6992,2.8008 -2.1016,0 -3.8984,-1.6992 -3.8984,-3.8984 0,-2.1016 1.6992,-3.8984 3.8984,-3.8984 1.8008,0 3.1992,1.1992 3.6992,2.8008 l 18.301,-0.01172 c 0.60156,0 1.1016,0.5 1.1016,1.1016 z m -21.5,0 c 0,-0.89844 -0.69922,-1.6992 -1.6992,-1.6992 -0.89844,0 -1.6992,0.69922 -1.6992,1.6992 0,0.89844 0.69922,1.6992 1.6992,1.6992 0.99609,-0.10156 1.6992,-0.80078 1.6992,-1.6992 z m 6.0977,11.598 c 0,-0.89844 -0.69922,-1.6992 -1.6992,-1.6992 -0.89844,0 -1.6992,0.69922 -1.6992,1.6992 0,0.89844 0.69922,1.6992 1.6992,1.6992 0.89844,-0.09766 1.6992,-0.79688 1.6992,-1.6992 z m 15.402,-17.297 c 0,0.60156 -0.5,1.1016 -1.1016,1.1016 l -16.602,-0.0039 c -0.39844,0 -0.80078,-0.19922 -1,-0.60156 l -3.6016,-6.1992 c -0.30078,0.10156 -0.60156,0.10156 -0.89844,0.10156 -2.1016,0 -3.8984,-1.6992 -3.8984,-3.8984 0,-2.1016 1.6992,-3.8984 3.8984,-3.8984 2.1016,0 3.8984,1.6992 3.8984,3.8984 0,1 -0.39844,2 -1.1016,2.6992 l 3.3008,5.6016 h 6.6992 l -2.1016,-3.6016 c -0.30078,0.10156 -0.60156,0.10156 -0.89844,0.10156 -2.1016,0 -3.8984,-1.6992 -3.8984,-3.8984 0,-2.1016 1.6992,-3.8984 3.8984,-3.8984 2.1016,0 3.8984,1.6992 3.8984,3.8984 0,1 -0.39844,2 -1.1016,2.6992 l 2.6992,4.6992 6.8086,-0.0039 c 0.60156,0.10156 1.1016,0.60156 1.1016,1.2031 z m -11.602,-8.4023 c 0,-0.89844 -0.69922,-1.6992 -1.6992,-1.6992 -0.89844,0 -1.6992,0.69922 -1.6992,1.6992 0,0.99998 0.69922,1.6992 1.6992,1.6992 0.89844,-0.09766 1.6992,-0.79688 1.6992,-1.6992 z m -9.8984,-1 c 0,-0.89844 -0.69922,-1.6992 -1.6992,-1.6992 -0.89844,0 -1.6992,0.69922 -1.6992,1.6992 0,0.99998 0.69922,1.6992 1.6992,1.6992 0.99609,0 1.6992,-0.79688 1.6992,-1.6992 z m 47.297,9.4023 c 0,-0.60156 0.5,-1.1016 1.1016,-1.1016 h 6.6992 l 2.6992,-4.6992 c -0.69922,-0.69922 -1.1016,-1.6016 -1.1016,-2.6992 0,-2.1016 1.6992,-3.8984 3.8984,-3.8984 2.1016,0 3.8984,1.6992 3.8984,3.8984 0,2.1016 -1.6992,3.8984 -3.8984,3.8984 -0.30078,0 -0.60156,0 -0.89844,-0.10156 l -2.0977,3.6016 h 6.6992 l 3.3008,-5.6016 c -0.69922,-0.69922 -1.1016,-1.6016 -1.1016,-2.6992 0,-2.1016 1.6992,-3.8984 3.8984,-3.8984 2.1016,0 3.8984,1.6992 3.8984,3.8984 0,2.1016 -1.6992,3.8984 -3.8984,3.8984 -0.30078,0 -0.60156,0 -0.89844,-0.10156 l -3.6016,6.1992 c -0.19922,0.30078 -0.60156,0.60156 -1,0.60156 l -16.496,0.0039 c -0.60156,-0.10156 -1.1016,-0.60156 -1.1016,-1.1992 z m 21.5,-9.4023 c 0,0.89844 0.69922,1.6992 1.6992,1.6992 0.89844,0 1.6992,-0.69922 1.6992,-1.6992 0,-0.99998 -0.69922,-1.6992 -1.6992,-1.6992 -0.99609,0.10156 -1.6992,0.80078 -1.6992,1.6992 z m -9.8984,1 c 0,0.89844 0.69922,1.6992 1.6992,1.6992 0.99998,0 1.6992,-0.69922 1.6992,-1.6992 0,-0.99998 -0.79688,-1.6992 -1.6992,-1.6992 -0.89844,0 -1.6992,0.80078 -1.6992,1.6992 z"
     id="path2" />
</svg>
